<svg width="46" height="72" viewBox="0 0 46 72" fill="none" xmlns="http://www.w3.org/2000/svg">
<g opacity="0.2">
<path fill-rule="evenodd" clip-rule="evenodd" d="M43.7776 56.916C46.2976 58.284 46.2976 60.516 43.8136 61.884L27.5416 70.812C25.0216 72.18 20.9536 72.18 18.4336 70.812L2.0536 61.884C-0.466399 60.516 -0.466399 58.284 2.0176 56.916L18.2896 47.988C20.8096 46.62 24.8776 46.62 27.3976 47.988L43.7776 56.916Z" fill="#606060"/>
</g>
<path fill-rule="evenodd" clip-rule="evenodd" d="M44.6056 55.908V56.268C44.6056 56.304 44.6056 56.34 44.5696 56.34C44.5336 56.34 44.5696 56.376 44.5336 56.412C44.5298 56.4393 44.5172 56.4646 44.4976 56.484C44.4976 56.52 44.4616 56.52 44.4616 56.556C44.4616 56.592 44.4256 56.628 44.4256 56.664C44.4256 56.7 44.3896 56.7 44.3896 56.736C44.3896 56.772 44.3536 56.808 44.3536 56.844C44.3536 56.88 44.3176 56.88 44.3176 56.916C44.3176 56.952 44.2816 56.988 44.2456 57.024C44.2096 57.06 44.2096 57.06 44.2096 57.096C44.2096 57.132 44.1376 57.168 44.1376 57.204L44.1016 57.24C44.0656 57.312 43.9936 57.348 43.9576 57.42L43.9216 57.456C43.8856 57.492 43.8496 57.564 43.7776 57.6L43.7056 57.672C43.6696 57.708 43.6336 57.708 43.6336 57.744C43.6336 57.78 43.5616 57.78 43.5616 57.816C43.5616 57.852 43.4896 57.852 43.4536 57.888C43.4176 57.924 43.3816 57.924 43.3456 57.96C43.3096 57.996 43.2736 57.996 43.2376 58.032C43.2016 58.068 43.1656 58.068 43.1296 58.104C43.0936 58.14 43.0576 58.14 43.0216 58.176C42.9819 58.2139 42.9318 58.239 42.8776 58.248L27.52 67.176C27.376 67.248 27.268 67.32 27.124 67.392C27.088 67.392 27.052 67.428 27.016 67.428C26.872 67.5 26.764 67.536 26.62 67.608C26.6001 67.608 26.584 67.6241 26.584 67.644C26.4459 67.708 26.301 67.7563 26.152 67.788C26.0485 67.829 25.9391 67.8533 25.828 67.86C25.7455 67.8888 25.6613 67.9128 25.576 67.932C25.468 67.968 25.36 67.968 25.252 68.004C25.144 68.04 25.072 68.04 25 68.04H24.892C24.748 68.076 24.604 68.076 24.46 68.112H24.352C24.2664 68.1062 24.1806 68.1185 24.1 68.148C23.956 68.148 23.812 68.184 23.704 68.184H22.516C22.4186 68.1898 22.321 68.1776 22.228 68.148C22.12 68.148 22.012 68.112 21.94 68.112C21.868 68.112 21.76 68.076 21.652 68.076C21.5409 68.0693 21.4315 68.045 21.328 68.004C21.256 68.004 21.148 67.968 21.076 67.968C20.932 67.932 20.824 67.896 20.716 67.86C20.608 67.824 20.536 67.824 20.464 67.788C20.392 67.752 20.392 67.752 20.32 67.752C20.1943 67.7197 20.0733 67.6713 19.96 67.608C19.924 67.608 19.888 67.572 19.852 67.572C19.7378 67.5393 19.6288 67.4908 19.528 67.428C19.492 67.392 19.42 67.392 19.384 67.356L18.952 67.14L3.472 58.212C2.284 57.528 1.672 56.628 1.672 55.692V57.348C1.672 58.248 2.284 59.148 3.472 59.868L18.952 68.796L19.384 69.012C19.42 69.048 19.492 69.048 19.528 69.084C19.636 69.12 19.708 69.156 19.816 69.192H19.852C19.888 69.192 19.924 69.228 19.96 69.228C20.0857 69.2603 20.2067 69.3087 20.32 69.372C20.356 69.372 20.392 69.408 20.464 69.408C20.4913 69.4118 20.5166 69.4244 20.536 69.444C20.572 69.444 20.644 69.48 20.68 69.48C20.788 69.516 20.932 69.552 21.04 69.588C21.0796 69.5832 21.1192 69.5964 21.148 69.624C21.1988 69.6186 21.2498 69.6313 21.292 69.66C21.4 69.696 21.508 69.696 21.616 69.732C21.6664 69.7305 21.7162 69.7429 21.76 69.768H21.904C22.012 69.768 22.12 69.804 22.192 69.804H23.668C23.8011 69.8116 23.9345 69.7995 24.064 69.768H24.424C24.5704 69.7617 24.7155 69.7375 24.856 69.696H25C25.0607 69.6875 25.1208 69.6755 25.18 69.66C25.288 69.624 25.396 69.624 25.504 69.588C25.5866 69.5592 25.6707 69.5352 25.756 69.516C25.8595 69.475 25.9689 69.4507 26.08 69.444C26.116 69.444 26.116 69.444 26.152 69.408C26.2777 69.3757 26.3987 69.3273 26.512 69.264C26.5319 69.264 26.548 69.2479 26.548 69.228C26.6864 69.1831 26.8192 69.1227 26.944 69.048C26.98 69.048 27.016 69.012 27.052 69.012C27.188 68.9476 27.3203 68.8755 27.448 68.796L42.82 59.868C42.856 59.868 42.856 59.832 42.892 59.832C42.928 59.832 42.928 59.796 42.964 59.796C43 59.796 43.036 59.76 43.072 59.724C43.108 59.688 43.144 59.688 43.18 59.652C43.216 59.616 43.252 59.616 43.288 59.58C43.324 59.544 43.36 59.544 43.396 59.508C43.432 59.472 43.468 59.472 43.504 59.436C43.54 59.4 43.576 59.4 43.576 59.364C43.576 59.328 43.648 59.328 43.648 59.292L43.684 59.256L43.72 59.22L43.864 59.076L43.9 59.04C43.9586 58.9893 44.0074 58.9283 44.044 58.86L44.08 58.824C44.116 58.788 44.152 58.752 44.152 58.716C44.152 58.68 44.188 58.68 44.188 58.644C44.188 58.608 44.224 58.572 44.26 58.536C44.284 58.512 44.308 58.488 44.332 58.464C44.332 58.428 44.368 58.392 44.368 58.356C44.368 58.32 44.404 58.32 44.404 58.284C44.404 58.248 44.44 58.212 44.44 58.176V58.104C44.4438 58.0768 44.4564 58.0515 44.476 58.032C44.476 57.996 44.476 57.996 44.512 57.9601C44.548 57.9241 44.512 57.8881 44.548 57.8881V55.8C44.6056 55.836 44.6056 55.872 44.6056 55.908Z" fill="url(#paint0_linear)"/>
<path fill-rule="evenodd" clip-rule="evenodd" d="M42.8416 53.28C45.2176 54.648 45.2536 56.88 42.8776 58.248L27.52 67.176C25.144 68.544 21.292 68.544 18.916 67.176L3.436 58.248C1.06 56.88 1.024 54.648 3.4 53.28L18.772 44.352C21.148 42.984 25 42.984 27.376 44.352L42.8416 53.28Z" fill="url(#paint1_linear)"/>
<path fill-rule="evenodd" clip-rule="evenodd" d="M33.4096 55.476C33.1216 56.772 32.1136 57.996 30.4216 59.004C26.2816 61.416 19.5856 61.416 15.4096 59.004C13.6816 57.996 12.6736 56.736 12.3856 55.44C11.9536 53.604 12.9616 51.696 15.3736 50.292C19.5136 47.88 26.2456 47.88 30.3856 50.292C32.8336 51.696 33.8416 53.64 33.4096 55.476Z" fill="url(#paint2_linear)"/>
<path fill-rule="evenodd" clip-rule="evenodd" d="M33.4096 55.476C33.1216 56.772 32.1136 57.996 30.4216 59.004C26.2816 61.416 19.5856 61.416 15.4096 59.004C13.6816 57.996 12.6736 56.736 12.3856 55.44C12.6736 54.144 13.6816 52.92 15.3736 51.912C19.5136 49.5 26.2456 49.5 30.3856 51.912C32.1136 52.92 33.1216 54.18 33.4096 55.476Z" fill="url(#paint3_linear)"/>
<path opacity="0.6" fill-rule="evenodd" clip-rule="evenodd" d="M26.2816 7.344C26.2881 11.3435 25.7059 15.3221 24.5536 19.152C23.4218 22.9883 21.736 26.6387 19.5496 29.988L18.2536 31.968C17.1637 31.5409 16.1348 30.972 15.1936 30.276C14.1279 29.4632 13.1931 28.4919 12.4216 27.396C10.9901 25.3224 10.2287 22.8597 10.24 20.34V16.596C12.6417 17.0633 15.0742 15.9484 16.288 13.824L18.232 10.44C19.0312 10.9028 19.9365 11.1509 20.86 11.16C22.5878 11.1706 24.2076 10.3203 25.18 8.892L26.2816 7.344Z" fill="url(#paint4_linear)"/>
<path fill-rule="evenodd" clip-rule="evenodd" d="M28.96 8.892C28.9665 12.8915 28.3842 16.8701 27.232 20.7C26.1002 24.5363 24.4144 28.1868 22.228 31.536L20.932 33.516C19.8421 33.0889 18.8132 32.52 17.872 31.824C16.8063 31.0112 15.8715 30.0399 15.1 28.944C13.6634 26.872 12.8969 24.4093 12.904 21.888V18.144C15.3057 18.6113 17.7382 17.4964 18.952 15.372L20.896 11.988C21.6952 12.4508 22.6005 12.6989 23.524 12.708C25.2518 12.7186 26.8716 11.8683 27.844 10.44L28.96 8.892Z" fill="url(#paint5_linear)"/>
<g opacity="0.75">
<path fill-rule="evenodd" clip-rule="evenodd" d="M27.916 10.404L28.96 8.892C28.9423 12.861 28.3852 16.8091 27.304 20.628C26.1568 24.4585 24.4721 28.1068 22.3 31.464L21.004 33.444C19.9103 33.025 18.8804 32.4555 17.944 31.752C14.8139 29.4087 12.9726 25.7261 12.976 21.816V18.072C13.3316 18.1436 13.6933 18.1797 14.056 18.18C16.1012 18.1876 17.995 17.1035 19.024 15.336L20.968 11.952C21.7603 12.431 22.6702 12.6803 23.596 12.672C25.3218 12.6744 26.9379 11.8259 27.916 10.404ZM28.6212 9.84921C28.6213 9.84214 28.6215 9.83507 28.6216 9.828H28.636L28.6212 9.84921ZM28.6212 9.84921L28.132 10.548C27.0999 12.0577 25.3888 12.9604 23.56 12.96C22.6839 12.9539 21.8213 12.7444 21.04 12.348L19.1896 15.516C18.1168 17.3638 16.1423 18.5019 14.0056 18.504C13.7411 18.51 13.4765 18.4979 13.2136 18.468V21.888C13.203 24.3543 13.9439 26.7652 15.3376 28.8C16.7025 30.7587 18.602 32.2833 20.8096 33.192L21.9616 31.392C24.1283 28.0625 25.8016 24.4369 26.9296 20.628C27.9744 17.1272 28.5433 13.5017 28.6212 9.84921Z" fill="url(#paint6_linear)"/>
</g>
<path fill-rule="evenodd" clip-rule="evenodd" d="M28.96 8.89201L27.916 10.404C26.938 11.826 25.3218 12.6744 23.596 12.672C22.6702 12.6803 21.7603 12.431 20.968 11.952L19.024 15.336C17.7994 17.4486 15.3758 18.5594 12.976 18.108V21.852C12.9726 25.7621 14.8139 29.4447 17.944 31.788C13.3354 29.833 10.3438 25.3102 10.348 20.304V16.56C12.7497 17.0273 15.1822 15.9124 16.396 13.788L18.34 10.404C20.7137 11.7756 23.7434 11.0849 25.288 8.82001L26.332 7.308L28.96 8.89201Z" fill="url(#paint7_linear)"/>
<path opacity="0.6" fill-rule="evenodd" clip-rule="evenodd" d="M21.2056 24.912C21.2056 24.912 21.3856 23.472 23.8696 21.852C25.0116 22.6196 25.9306 23.6752 26.5336 24.912C26.5336 24.912 27.88 16.344 31.8616 14.148L35.8576 16.452C32.5096 17.748 29.1256 23.4 26.9296 30.816C25.8496 28.044 23.8696 25.812 21.2056 24.912Z" fill="#6BE726"/>
<g opacity="0.95">
<path fill-rule="evenodd" clip-rule="evenodd" d="M35.8576 16.452L33.8416 15.3C29.8456 17.496 28.5136 26.064 28.5136 26.064C28.0965 25.1584 27.4958 24.3493 26.7496 23.688C27.2896 21.24 28.7656 15.804 31.8616 14.112L35.8576 16.452Z" fill="url(#paint8_linear)"/>
<path fill-rule="evenodd" clip-rule="evenodd" d="M25.8496 22.968L23.8696 21.816C22.3216 22.896 21.4576 23.904 21.2056 24.876L23.2 26.028C23.7237 24.745 24.6547 23.6698 25.8496 22.968Z" fill="url(#paint9_linear)"/>
<path fill-rule="evenodd" clip-rule="evenodd" d="M23.6176 26.208C24.8776 27.18 26.0296 28.584 26.9296 30.816L28.9096 31.968C27.7576 28.98 25.8856 27.252 23.6176 26.208Z" fill="#FF9418"/>
</g>
<path fill-rule="evenodd" clip-rule="evenodd" d="M23.2 26.064C23.2 26.064 23.38 24.624 25.864 23.004C27.006 23.7716 27.925 24.8272 28.528 26.064C28.528 26.064 29.86 17.496 33.856 15.3L37.852 17.604C34.504 18.9 31.12 24.552 28.924 31.968C27.88 29.196 25.8496 26.964 23.2 26.064Z" fill="url(#paint10_linear)"/>
<g opacity="0.91">
<path fill-rule="evenodd" clip-rule="evenodd" d="M28.5136 26.064C28.5136 26.064 29.8456 17.496 33.8416 15.3L37.8736 17.604C34.5256 18.864 31.1416 24.552 28.9456 31.968C27.8656 29.196 25.8496 26.964 23.1856 26.064C23.1856 26.064 23.3656 24.66 25.8496 23.004C26.9998 23.7622 27.921 24.8203 28.5136 26.064ZM37.5136 17.568L33.8416 15.444C30.3109 17.4758 28.9066 24.7777 28.6879 25.9151C28.6702 26.007 28.6603 26.0586 28.6576 26.064L28.5856 26.532L28.3696 26.1C27.8074 24.9092 26.9375 23.8901 25.8496 23.148C23.9416 24.444 23.4736 25.596 23.3656 25.956C25.7416 26.82 27.7576 28.836 28.9096 31.536C31.12 24.3 34.36 19.008 37.5136 17.568Z" fill="url(#paint11_linear)"/>
</g>
<g opacity="0.75">
<path opacity="0.9" fill-rule="evenodd" clip-rule="evenodd" d="M12.9616 21.708V21.852C12.9604 22.637 13.0327 23.4205 13.1776 24.192L21.5656 32.58L22.2496 31.536L22.4656 31.212L12.9616 21.708Z" fill="url(#paint12_linear)"/>
<path opacity="0.9" fill-rule="evenodd" clip-rule="evenodd" d="M16.36 17.748C15.2984 18.2207 14.118 18.3588 12.976 18.144V18.9L23.524 29.448C24.064 28.476 24.604 27.468 25.072 26.46L16.36 17.748Z" fill="url(#paint13_linear)"/>
<path opacity="0.9" fill-rule="evenodd" clip-rule="evenodd" d="M26.8936 21.708C27.0016 21.384 27.1096 21.024 27.2176 20.664C27.3976 20.016 27.5776 19.368 27.7216 18.72L20.9176 11.916L19.5136 14.328L26.8936 21.708Z" fill="url(#paint14_linear)"/>
<path opacity="0.9" fill-rule="evenodd" clip-rule="evenodd" d="M26.1736 23.724C26.2456 23.508 26.3176 23.292 26.3896 23.112L18.8296 15.552C18.7305 15.734 18.6096 15.9032 18.4696 16.056L26.1736 23.724Z" fill="url(#paint15_linear)"/>
<path opacity="0.9" fill-rule="evenodd" clip-rule="evenodd" d="M24.6616 12.564L28.2976 16.2C28.4056 15.552 28.5136 14.904 28.5856 14.256L26.2816 11.952C25.7769 12.2395 25.2303 12.446 24.6616 12.564Z" fill="url(#paint16_linear)"/>
</g>
<path opacity="0.75" d="M10.2616 16.596L13.1416 18.36" stroke="url(#paint17_linear)" stroke-width="0.8"/>
<path opacity="0.75" d="M18.1816 10.584L20.9536 12.204" stroke="url(#paint18_linear)" stroke-width="0.8"/>
<path opacity="0.75" d="M26.2096 7.524L28.8376 9.036" stroke="url(#paint19_linear)" stroke-width="0.8"/>
<path fill-rule="evenodd" clip-rule="evenodd" d="M26.7496 0.612L41.3656 14.832L36.4696 34.632L21.8536 20.412L26.7496 0.612V0.612Z" stroke="#B5BDFC" stroke-width="0.28"/>
<path fill-rule="evenodd" clip-rule="evenodd" d="M21.8536 20.412L36.4696 34.632L16.7776 40.248L2.1616 26.028L21.8536 20.412V20.412Z" stroke="#B5BDFC" stroke-width="0.28"/>
<path fill-rule="evenodd" clip-rule="evenodd" d="M26.7496 0.612L21.8536 20.412L2.1616 26.028L7.0216 6.228L26.7496 0.612V0.612Z" stroke="#B5BDFC" stroke-width="0.28"/>
<path fill-rule="evenodd" clip-rule="evenodd" d="M1.9816 26.676C2.3196 26.676 2.5936 26.402 2.5936 26.064C2.5936 25.726 2.3196 25.452 1.9816 25.452C1.6436 25.452 1.3696 25.726 1.3696 26.064C1.3696 26.402 1.6436 26.676 1.9816 26.676Z" fill="#B6BDFC"/>
<path fill-rule="evenodd" clip-rule="evenodd" d="M7.0216 6.84C7.3596 6.84 7.6336 6.56599 7.6336 6.228C7.6336 5.89 7.3596 5.616 7.0216 5.616C6.6836 5.616 6.4096 5.89 6.4096 6.228C6.4096 6.56599 6.6836 6.84 7.0216 6.84Z" fill="#B6BDFC"/>
<path fill-rule="evenodd" clip-rule="evenodd" d="M21.7456 20.916C22.0836 20.916 22.3576 20.642 22.3576 20.304C22.3576 19.966 22.0836 19.692 21.7456 19.692C21.4076 19.692 21.1336 19.966 21.1336 20.304C21.1336 20.642 21.4076 20.916 21.7456 20.916Z" fill="#B6BDFC"/>
<path fill-rule="evenodd" clip-rule="evenodd" d="M36.5056 35.208C36.8436 35.208 37.1176 34.934 37.1176 34.596C37.1176 34.258 36.8436 33.984 36.5056 33.984C36.1676 33.984 35.8936 34.258 35.8936 34.596C35.8936 34.934 36.1676 35.208 36.5056 35.208Z" fill="#B6BDFC"/>
<path fill-rule="evenodd" clip-rule="evenodd" d="M26.7496 1.224C27.0876 1.224 27.3616 0.949998 27.3616 0.612C27.3616 0.274002 27.0876 0 26.7496 0C26.4116 0 26.1376 0.274002 26.1376 0.612C26.1376 0.949998 26.4116 1.224 26.7496 1.224Z" fill="#B6BDFC"/>
<path fill-rule="evenodd" clip-rule="evenodd" d="M16.7056 40.896C17.0436 40.896 17.3176 40.622 17.3176 40.284C17.3176 39.946 17.0436 39.672 16.7056 39.672C16.3676 39.672 16.0936 39.946 16.0936 40.284C16.0936 40.622 16.3676 40.896 16.7056 40.896Z" fill="#B6BDFC"/>
<path fill-rule="evenodd" clip-rule="evenodd" d="M41.4376 15.444C41.7756 15.444 42.0496 15.17 42.0496 14.832C42.0496 14.494 41.7756 14.22 41.4376 14.22C41.0996 14.22 40.8256 14.494 40.8256 14.832C40.8256 15.17 41.0996 15.444 41.4376 15.444Z" fill="#B6BDFC"/>
<path fill-rule="evenodd" clip-rule="evenodd" d="M18.7936 49.824C18.7936 49.6439 18.6975 49.4775 18.5416 49.3875C18.3857 49.2975 18.1935 49.2975 18.0376 49.3875C17.8817 49.4775 17.7856 49.6439 17.7856 49.824C17.7865 50.0027 17.8825 50.1673 18.0376 50.256L18.2896 66.096L18.5416 50.256C18.6967 50.1673 18.7928 50.0027 18.7936 49.824Z" fill="url(#paint20_linear)"/>
<path fill-rule="evenodd" clip-rule="evenodd" d="M23.9416 41.616C23.9416 41.1985 23.6031 40.86 23.1856 40.86C22.7681 40.86 22.4296 41.1985 22.4296 41.616C22.4277 41.8897 22.5812 42.1408 22.8256 42.264L23.2 65.16H23.164L23.524 42.264C23.7769 42.147 23.9395 41.8946 23.9416 41.616Z" fill="url(#paint21_linear)"/>
<path fill-rule="evenodd" clip-rule="evenodd" d="M28.4776 47.88C28.4776 47.6017 28.252 47.376 27.9736 47.376C27.6952 47.376 27.4696 47.6017 27.4696 47.88C27.4704 48.0587 27.5665 48.2233 27.7216 48.312L27.9736 64.152L28.2256 48.312C28.3807 48.2233 28.4767 48.0587 28.4776 47.88Z" fill="url(#paint22_linear)"/>
<path fill-rule="evenodd" clip-rule="evenodd" d="M39.6016 24.336H6.1936L12.2776 54.792C12.2838 54.9977 12.3079 55.2025 12.3496 55.404C12.6376 56.7 13.6456 57.96 15.3736 58.968C19.5496 61.38 26.2456 61.38 30.3856 58.968C32.0776 57.996 33.0856 56.736 33.3736 55.44C33.4154 55.2264 33.4395 55.0096 33.4456 54.792L39.6016 24.336Z" fill="url(#paint23_linear)"/>
<defs>
<linearGradient id="paint0_linear" x1="1.5892" y1="69.8211" x2="44.62" y2="69.8211" gradientUnits="userSpaceOnUse">
<stop stop-color="#7348BF"/>
<stop offset="0.25" stop-color="#784AC1"/>
<stop offset="0.54" stop-color="#854FC8"/>
<stop offset="0.85" stop-color="#9C58D4"/>
<stop offset="1" stop-color="#AA5DDB"/>
</linearGradient>
<linearGradient id="paint1_linear" x1="67.8303" y1="76.2048" x2="67.8303" y2="24.4944" gradientUnits="userSpaceOnUse">
<stop stop-color="#DBA5F5"/>
<stop offset="0.19" stop-color="#DDAAF6"/>
<stop offset="0.41" stop-color="#E2B7F7"/>
<stop offset="0.65" stop-color="#EBCEFA"/>
<stop offset="0.89" stop-color="#F8EEFD"/>
<stop offset="1" stop-color="white"/>
</linearGradient>
<linearGradient id="paint2_linear" x1="34.4733" y1="-160.956" x2="34.4733" y2="-174.41" gradientUnits="userSpaceOnUse">
<stop stop-color="#7348BF"/>
<stop offset="0.25" stop-color="#784AC1"/>
<stop offset="0.54" stop-color="#854FC8"/>
<stop offset="0.85" stop-color="#9C58D4"/>
<stop offset="1" stop-color="#AA5DDB"/>
</linearGradient>
<linearGradient id="paint3_linear" x1="3.59792" y1="-182.915" x2="3.59792" y2="-163.252" gradientUnits="userSpaceOnUse">
<stop stop-color="#7348BF"/>
<stop offset="0.25" stop-color="#784AC1"/>
<stop offset="0.54" stop-color="#854FC8"/>
<stop offset="0.85" stop-color="#9C58D4"/>
<stop offset="1" stop-color="#AA5DDB"/>
</linearGradient>
<linearGradient id="paint4_linear" x1="18.3508" y1="36.9848" x2="36.1496" y2="26.4851" gradientUnits="userSpaceOnUse">
<stop stop-color="#FFD13E"/>
<stop offset="0.05" stop-color="#FECD3B"/>
<stop offset="0.31" stop-color="#F8BD32"/>
<stop offset="0.6" stop-color="#F5B42C"/>
<stop offset="1" stop-color="#F4B12A"/>
</linearGradient>
<linearGradient id="paint5_linear" x1="12.9436" y1="33.4635" x2="28.9312" y2="33.4635" gradientUnits="userSpaceOnUse">
<stop stop-color="#DBA5F5"/>
<stop offset="0.19" stop-color="#DBA0F5"/>
<stop offset="0.41" stop-color="#DB93F5"/>
<stop offset="0.64" stop-color="#DB7CF5"/>
<stop offset="0.87" stop-color="#DB5CF5"/>
<stop offset="1" stop-color="#DB48F5"/>
</linearGradient>
<linearGradient id="paint6_linear" x1="12.9436" y1="33.444" x2="28.9276" y2="33.444" gradientUnits="userSpaceOnUse">
<stop stop-color="white" stop-opacity="0.01"/>
<stop offset="1" stop-color="white" stop-opacity="0.85"/>
</linearGradient>
<linearGradient id="paint7_linear" x1="9.97023" y1="-125.493" x2="27.5264" y2="-118.716" gradientUnits="userSpaceOnUse">
<stop stop-color="#7348BF"/>
<stop offset="0.25" stop-color="#784AC1"/>
<stop offset="0.54" stop-color="#854FC8"/>
<stop offset="0.85" stop-color="#9C58D4"/>
<stop offset="1" stop-color="#AA5DDB"/>
</linearGradient>
<linearGradient id="paint8_linear" x1="27.8705" y1="13.7684" x2="25.6303" y2="24.342" gradientUnits="userSpaceOnUse">
<stop stop-color="#FFCF5C"/>
<stop offset="0.22" stop-color="#FFCB57"/>
<stop offset="0.47" stop-color="#FFBF4A"/>
<stop offset="0.74" stop-color="#FFAB33"/>
<stop offset="1" stop-color="#FF9115"/>
</linearGradient>
<linearGradient id="paint9_linear" x1="20.7502" y1="-134.517" x2="25.3213" y2="-133.335" gradientUnits="userSpaceOnUse">
<stop stop-color="#FFCF5C"/>
<stop offset="0.22" stop-color="#FFCB57"/>
<stop offset="0.47" stop-color="#FFBF4A"/>
<stop offset="0.74" stop-color="#FFAB33"/>
<stop offset="1" stop-color="#FF9115"/>
</linearGradient>
<linearGradient id="paint10_linear" x1="39.4311" y1="-130.926" x2="32.597" y2="-145.443" gradientUnits="userSpaceOnUse">
<stop stop-color="#FFCF5C"/>
<stop offset="0.22" stop-color="#FFCB57"/>
<stop offset="0.47" stop-color="#FFBF4A"/>
<stop offset="0.74" stop-color="#FFAB33"/>
<stop offset="1" stop-color="#FF9115"/>
</linearGradient>
<linearGradient id="paint11_linear" x1="35.5183" y1="20.698" x2="27.7339" y2="17.2082" gradientUnits="userSpaceOnUse">
<stop stop-color="white" stop-opacity="0.01"/>
<stop offset="0.93" stop-color="white" stop-opacity="0.79"/>
<stop offset="1" stop-color="white" stop-opacity="0.85"/>
</linearGradient>
<linearGradient id="paint12_linear" x1="14.6663" y1="-144.109" x2="6.89301" y2="-137.403" gradientUnits="userSpaceOnUse">
<stop stop-color="white" stop-opacity="0.01"/>
<stop offset="1" stop-color="white" stop-opacity="0.85"/>
</linearGradient>
<linearGradient id="paint13_linear" x1="17.2044" y1="-140.703" x2="10.6014" y2="-132.732" gradientUnits="userSpaceOnUse">
<stop stop-color="white" stop-opacity="0.01"/>
<stop offset="1" stop-color="white" stop-opacity="0.85"/>
</linearGradient>
<linearGradient id="paint14_linear" x1="23.6004" y1="-136.485" x2="15.6124" y2="-130.145" gradientUnits="userSpaceOnUse">
<stop stop-color="white" stop-opacity="0.01"/>
<stop offset="1" stop-color="white" stop-opacity="0.85"/>
</linearGradient>
<linearGradient id="paint15_linear" x1="20.9076" y1="-137.865" x2="13.8073" y2="-130.332" gradientUnits="userSpaceOnUse">
<stop stop-color="white" stop-opacity="0.01"/>
<stop offset="1" stop-color="white" stop-opacity="0.85"/>
</linearGradient>
<linearGradient id="paint16_linear" x1="26.5017" y1="-133.249" x2="19.0644" y2="-126.085" gradientUnits="userSpaceOnUse">
<stop stop-color="white" stop-opacity="0.01"/>
<stop offset="1" stop-color="white" stop-opacity="0.85"/>
</linearGradient>
<linearGradient id="paint17_linear" x1="10.204" y1="-128.774" x2="13.2064" y2="-128.774" gradientUnits="userSpaceOnUse">
<stop stop-color="white" stop-opacity="0.01"/>
<stop offset="1" stop-color="white" stop-opacity="0.85"/>
</linearGradient>
<linearGradient id="paint18_linear" x1="18.1096" y1="-122.763" x2="21.0076" y2="-122.763" gradientUnits="userSpaceOnUse">
<stop stop-color="white" stop-opacity="0.01"/>
<stop offset="1" stop-color="white" stop-opacity="0.85"/>
</linearGradient>
<linearGradient id="paint19_linear" x1="26.152" y1="-119.704" x2="28.9024" y2="-119.704" gradientUnits="userSpaceOnUse">
<stop stop-color="white" stop-opacity="0.01"/>
<stop offset="1" stop-color="white" stop-opacity="0.85"/>
</linearGradient>
<linearGradient id="paint20_linear" x1="18.8011" y1="60.614" x2="16.2378" y2="60.0109" gradientUnits="userSpaceOnUse">
<stop stop-color="white" stop-opacity="0.01"/>
<stop offset="1" stop-color="white" stop-opacity="0.8"/>
</linearGradient>
<linearGradient id="paint21_linear" x1="22.9738" y1="-173.381" x2="19.0699" y2="-172.403" gradientUnits="userSpaceOnUse">
<stop stop-color="white" stop-opacity="0.01"/>
<stop offset="1" stop-color="white" stop-opacity="0.8"/>
</linearGradient>
<linearGradient id="paint22_linear" x1="27.8365" y1="-173.652" x2="25.2733" y2="-173.049" gradientUnits="userSpaceOnUse">
<stop stop-color="white" stop-opacity="0.01"/>
<stop offset="1" stop-color="white" stop-opacity="0.8"/>
</linearGradient>
<linearGradient id="paint23_linear" x1="4.6251" y1="25.0992" x2="4.6251" y2="64.962" gradientUnits="userSpaceOnUse">
<stop stop-color="#DBA5F5" stop-opacity="0.01"/>
<stop offset="0.21" stop-color="#DB9CF5" stop-opacity="0.21"/>
<stop offset="0.55" stop-color="#DB84F5" stop-opacity="0.55"/>
<stop offset="0.99" stop-color="#DB5CF5" stop-opacity="0.99"/>
<stop offset="1" stop-color="#DB5BF5"/>
</linearGradient>
</defs>
</svg>
